<?xml version="1.0" encoding="utf-8"?>
<!-- Generator: Adobe Illustrator 16.0.0, SVG Export Plug-In . SVG Version: 6.00 Build 0)  -->
<!DOCTYPE svg PUBLIC "-//W3C//DTD SVG 1.1//EN" "http://www.w3.org/Graphics/SVG/1.1/DTD/svg11.dtd">
<svg version="1.1" id="Ebene_1" xmlns="http://www.w3.org/2000/svg" xmlns:xlink="http://www.w3.org/1999/xlink" x="0px" y="0px"
	 width="64px" height="64px" viewBox="0 0 64 64" enable-background="new 0 0 64 64" xml:space="preserve">
<filter  width="200%" height="200%" id="blur">
	<feGaussianBlur  stdDeviation="3" in="SourceAlpha"></feGaussianBlur>
	<feOffset  result="offsetblur" dy="4" dx="0"></feOffset>
	<feComponentTransfer>
		<feFuncA  type="linear" slope="0.05"></feFuncA>
	</feComponentTransfer>
	<feMerge>
		<feMergeNode></feMergeNode>
		<feMergeNode  in="SourceGraphic"></feMergeNode>
	</feMerge>
</filter>
<g transform="translate(16,4), scale(0.8)">
	<g>
		<polygon fill="#FFA500" points="23.9,10.25 24.6,11.45 25.8,12.051 24.6,12.75 23.9,13.95 23.3,12.75 22.1,12.051 23.3,11.45 		
			"/>
	</g>
	<g>
		<polygon fill="#FFA500" points="43.9,20.25 44.6,21.45 45.8,22.051 44.6,22.75 43.9,23.95 43.3,22.75 42.1,22.051 43.3,21.45 		
			"/>
	</g>
	<g>
		<path fill="#FFA500" stroke="#FFA500" stroke-width="2" stroke-linejoin="round" d="M35.099,21.951c0-3.701,2.001-6.901,5-8.701
			c-1.499-0.9-3.199-1.299-5-1.299c-5.499,0-10,4.5-10,10c0,5.499,4.501,10,10,10c1.801,0,3.501-0.5,5-1.301
			C37.1,28.95,35.099,25.649,35.099,21.951z"/>
	</g>
</g>
<g id="rainy-3" filter="url(#blur)">
	<g transform="translate(20,10)">
		<g transform="translate(0,16)">
			<g>
				<g>
					<line fill="none" stroke="#FFA500" stroke-width="2" stroke-linecap="round" x1="0" y1="9" x2="0" y2="12"/>
				</g>
				<g transform="rotate(270)">
					<line fill="none" stroke="#FFA500" stroke-width="2" stroke-linecap="round" x1="0" y1="9" x2="0" y2="12"/>
				</g>
				<g transform="rotate(315)">
					<line fill="none" stroke="#FFA500" stroke-width="2" stroke-linecap="round" x1="0" y1="9" x2="0" y2="12"/>
				</g>
			</g>
		</g>
		<g>
			<path fill="#57A0EE" stroke="#FFFFFF" stroke-width="1.2" stroke-linejoin="round" d="M27.7,24.4c0-4.601-3.7-8.2-8.2-8.2
				c-1,0-1.9,0.2-2.8,0.5c-0.3-3.4-3.101-6.2-6.6-6.2c-3.7,0-6.7,3-6.7,6.7c0,0.8,0.2,1.6,0.4,2.3c-0.3-0.1-0.7-0.1-1-0.1
				c-3.7,0-6.7,3-6.7,6.7c0,3.601,2.9,6.601,6.5,6.7h17.2C24.2,32.3,27.7,28.8,27.7,24.4z"/>
		</g>
	</g>
	<g transform="translate(34,46), rotate(10)">
		
			<line fill="none" stroke="#91C0F8" stroke-width="2" stroke-linecap="round" stroke-dasharray="4,7" x1="-6" y1="1" x2="-6" y2="9"/>
		
			<line fill="none" stroke="#91C0F8" stroke-width="2" stroke-linecap="round" stroke-dasharray="4,7" x1="0" y1="-1" x2="0.001" y2="7"/>
	</g>
</g>
</svg>
